<svg xmlns="http://www.w3.org/2000/svg" viewBox="0 0 512 512">
  <defs>
    <linearGradient id="bg" x1="0" y1="0" x2="1" y2="1">
      <stop offset="0%" stop-color="#10182a"/>
      <stop offset="100%" stop-color="#1f2f4a"/>
    </linearGradient>
    <linearGradient id="accent" x1="0" y1="0" x2="1" y2="1">
      <stop offset="0%" stop-color="#f1b968"/>
      <stop offset="100%" stop-color="#f29b51"/>
    </linearGradient>
  </defs>
  <rect width="512" height="512" rx="128" fill="url(#bg)"/>
  <path d="M156 135h95c84 0 132 44 132 112 0 38-18 70-50 89 22 15 34 38 34 68 0 64-44 108-121 108H156V135Z" fill="#f7f0e2"/>
  <path d="M226 197v102h30c36 0 57-20 57-52 0-31-21-50-57-50h-30Zm0 162v91h18c37 0 59-16 59-45 0-30-22-46-62-46h-15Z" fill="url(#accent)"/>
</svg>
